<svg width="20" height="22" viewBox="0 0 20 22" fill="none" xmlns="http://www.w3.org/2000/svg">
<path d="M9.48637 14.4225C9.34065 14.5734 9.26001 14.7755 9.26184 14.9852C9.26366 15.195 9.34779 15.3956 9.49612 15.544C9.64445 15.6923 9.8451 15.7764 10.0549 15.7782C10.2646 15.7801 10.4667 15.6994 10.6176 15.5537L14.8848 11.2705C14.922 11.2333 14.9516 11.1892 14.9717 11.1406C14.9919 11.092 15.0023 11.0399 15.0023 10.9873C15.0023 10.9347 14.9919 10.8826 14.9717 10.834C14.9516 10.7854 14.922 10.7413 14.8848 10.7041L10.6176 6.4225C10.4667 6.27677 10.2646 6.19614 10.0549 6.19796C9.8451 6.19978 9.64445 6.28392 9.49612 6.43224C9.34779 6.58057 9.26366 6.78122 9.26184 6.99098C9.26001 7.20073 9.34065 7.40282 9.48637 7.5537L12.12 10.2001H1.39998C1.1878 10.2001 0.984319 10.2844 0.83429 10.4344C0.684261 10.5844 0.599976 10.7879 0.599976 11.0001C0.599976 11.2123 0.684261 11.4158 0.83429 11.5658C0.984319 11.7158 1.1878 11.8001 1.39998 11.8001H12.12L9.48637 14.4225ZM18.2 0.600098H7.79998C7.5878 0.600098 7.38432 0.684383 7.23429 0.834412C7.08426 0.984441 6.99998 1.18792 6.99998 1.4001C6.99998 1.61227 7.08426 1.81575 7.23429 1.96578C7.38432 2.11581 7.5878 2.2001 7.79998 2.2001H17.4C17.6121 2.2001 17.8156 2.28438 17.9657 2.43441C18.1157 2.58444 18.2 2.78792 18.2 3.0001V19.0001C18.2 19.2123 18.1157 19.4158 17.9657 19.5658C17.8156 19.7158 17.6121 19.8001 17.4 19.8001H7.39998C7.1878 19.8001 6.98432 19.8844 6.83429 20.0344C6.68426 20.1844 6.59998 20.3879 6.59998 20.6001C6.59998 20.8123 6.68426 21.0158 6.83429 21.1658C6.98432 21.3158 7.1878 21.4001 7.39998 21.4001H18.2C18.6243 21.4001 19.0313 21.2315 19.3313 20.9315C19.6314 20.6314 19.8 20.2244 19.8 19.8001V2.2001C19.8 1.77575 19.6314 1.36878 19.3313 1.06873C19.0313 0.768669 18.6243 0.600098 18.2 0.600098Z" fill="#53535C"/>
</svg>
