<svg width="13" height="23" viewBox="0 0 13 23" fill="none" xmlns="http://www.w3.org/2000/svg">
<path d="M0.497119 0.506265C0.178814 0.830525 0 1.27026 0 1.72876C0 2.18726 0.178814 2.62699 0.497119 2.95125L8.90166 11.5104L0.497119 20.0696C0.187835 20.3957 0.0166979 20.8325 0.020566 21.2859C0.024435 21.7393 0.202999 22.173 0.517801 22.4936C0.832603 22.8141 1.25846 22.996 1.70364 22.9999C2.14882 23.0039 2.57771 22.8296 2.89793 22.5146L12.5029 12.7329C12.8212 12.4087 13 11.9689 13 11.5104C13 11.0519 12.8212 10.6122 12.5029 10.2879L2.89793 0.506265C2.57953 0.182104 2.14774 0 1.69753 0C1.24731 0 0.81552 0.182104 0.497119 0.506265Z" fill="#94A6D2"/>
</svg>
